HIERARCHY
ROOT Pelvis
{
	OFFSET 0.000000 0.000000 0.000000
	CHANNELS 6 Xposition Yposition Zposition Zrotation Yrotation Xrotation 
	JOINT Left_hip
	{
		OFFSET 0.067986 -0.089946 -0.007639
		CHANNELS 3 Zrotation Yrotation Xrotation
		JOINT Left_knee
		{
			OFFSET 0.036308 -0.388288 -0.004016
			CHANNELS 3 Zrotation Yrotation Xrotation
			JOINT Left_ankle
			{
				OFFSET -0.012264 -0.413250 -0.042878
				CHANNELS 3 Zrotation Yrotation Xrotation
				JOINT Left_foot
				{
					OFFSET 0.024043 -0.058563 0.118570
					CHANNELS 3 Zrotation Yrotation Xrotation
					End Site
					{
						OFFSET 0.000000 0.000000 0.000000
					}
				}
			}
		}
	}
	JOINT Right_hip
	{
		OFFSET -0.065648 -0.089374 -0.003858
		CHANNELS 3 Zrotation Yrotation Xrotation
		JOINT Right_knee
		{
			OFFSET -0.042132 -0.395021 -0.006361
			CHANNELS 3 Zrotation Yrotation Xrotation
			JOINT Right_ankle
			{
				OFFSET 0.014805 -0.413264 -0.041054
				CHANNELS 3 Zrotation Yrotation Xrotation
				JOINT Right_foot
				{
					OFFSET -0.021758 -0.049013 0.121832
					CHANNELS 3 Zrotation Yrotation Xrotation
					End Site
					{
						OFFSET 0.000000 0.000000 0.000000
					}
				}
			}
		}
	}
	JOINT Spine1
	{
		OFFSET -0.002755 0.104406 -0.022277
		CHANNELS 3 Zrotation Yrotation Xrotation
		JOINT Spine2
		{
			OFFSET 0.004136 0.129393 -0.002186
			CHANNELS 3 Zrotation Yrotation Xrotation
			JOINT Spine3
			{
				OFFSET 0.001906 0.049304 0.025578
				CHANNELS 3 Zrotation Yrotation Xrotation
				JOINT Neck
				{
					OFFSET -0.004620 0.210958 -0.044063
					CHANNELS 3 Zrotation Yrotation Xrotation
					JOINT Head
					{
						OFFSET 0.003833 0.067393 0.052435
						CHANNELS 3 Zrotation Yrotation Xrotation
						End Site
						{
							OFFSET 0.000000 0.000000 0.000000
						}
					}
				}
				JOINT Left_collar
				{
					OFFSET 0.070771 0.116689 -0.037192
					CHANNELS 3 Zrotation Yrotation Xrotation
					JOINT Left_shoulder
					{
						OFFSET 0.080652 0.031596 -0.005617
						CHANNELS 3 Zrotation Yrotation Xrotation
						JOINT Left_elbow
						{
							OFFSET 0.262654 -0.015020 -0.027939
							CHANNELS 3 Zrotation Yrotation Xrotation
							JOINT Left_wrist
							{
								OFFSET 0.250438 0.010062 -0.000990
								CHANNELS 3 Zrotation Yrotation Xrotation
								JOINT Left_palm
								{
									OFFSET 0.081198 -0.010037 -0.013706
									CHANNELS 3 Zrotation Yrotation Xrotation
									End Site
									{
										OFFSET 0.000000 0.000000 0.000000
									}
								}
							}
						}
					}
				}
				JOINT Right_collar
				{
					OFFSET -0.072972 0.115556 -0.040762
					CHANNELS 3 Zrotation Yrotation Xrotation
					JOINT Right_shoulder
					{
						OFFSET -0.082917 0.031841 -0.006673
						CHANNELS 3 Zrotation Yrotation Xrotation
						JOINT Right_elbow
						{
							OFFSET -0.252882 -0.013790 -0.020410
							CHANNELS 3 Zrotation Yrotation Xrotation
							JOINT Right_wrist
							{
								OFFSET -0.255570 0.009163 -0.005138
								CHANNELS 3 Zrotation Yrotation Xrotation
								JOINT Right_palm
								{
									OFFSET -0.080804 -0.007282 -0.010415
									CHANNELS 3 Zrotation Yrotation Xrotation
									End Site
									{
										OFFSET 0.000000 0.000000 0.000000
									}
								}
							}
						}
					}
				}
			}
		}
	}
}
MOTION
Frames: 9
Frame Time: 0.100000
-0.112164 -0.022392 0.104703 167.014133 18.575494 -17.289650 13.426722 3.503387 -6.716287 -8.021139 -13.044037 20.872211 -3.699354 11.331479 -11.192486 3.823956 0.277278 -5.144398 -4.511142 -5.870757 -2.010983 8.122286 10.646767 15.692786 12.227366 -11.453899 -6.627587 -18.650693 6.998519 0.326718 -5.487213 6.362547 8.157696 -5.440870 -0.129580 3.902106 -1.631381 4.939509 -0.845641 -5.756761 -37.860266 3.110839 23.029266 -19.115459 -14.289484 -17.344193 -0.464020 -5.000920 -36.117642 -3.035965 9.239438 2.239145 -25.381064 -1.199168 -1.353445 -2.123375 2.588813 -10.907611 -10.004759 -13.115353 1.312929 9.974173 -5.861364 -2.615178 6.439205 -32.801371 -14.607064 18.002779 -57.332101 1.480913 5.443492 -23.689405 13.996816 4.886933 -4.872517 
-0.125852 -0.022075 0.102853 166.948688 17.662412 -17.251927 12.835284 3.406893 -6.559462 -8.159783 -12.371592 21.441084 -3.170888 11.573660 -11.652218 3.166368 0.362120 -4.688661 -5.023990 -5.835338 -1.402426 7.658005 11.032127 14.408220 12.539776 -11.195048 -5.739383 -18.325079 6.762196 0.371934 -5.468187 6.505314 7.513742 -5.303259 -0.129706 3.966901 -1.733398 5.078061 -0.803565 -6.748540 -38.011208 4.823698 22.766362 -18.868492 -13.635152 -17.177329 -0.397269 -4.879653 -37.504019 -3.289546 9.342373 1.263444 -21.121433 -1.522418 -1.885752 -1.540642 1.707498 -10.374010 -9.660502 -12.963987 1.189835 9.678698 -5.769239 -2.658213 7.324000 -33.483839 -13.303705 16.410620 -56.629082 1.347037 4.813513 -22.102774 13.947433 4.771955 -5.259193 
-0.136627 -0.021776 0.100441 166.829286 17.606347 -17.147198 12.166513 3.130098 -6.589008 -8.132162 -12.016760 21.482894 -2.802354 11.606338 -11.863855 2.834061 0.462979 -4.457352 -5.476931 -5.763068 -1.064682 7.198810 11.118611 13.415106 12.722572 -11.169791 -4.940736 -18.070757 6.796557 0.535145 -5.386027 6.550118 7.142933 -5.028917 -0.205350 4.016029 -1.701460 5.127135 -0.753837 -6.940180 -38.373201 5.245639 22.642737 -18.596257 -13.155505 -17.496476 -0.111029 -4.729469 -38.638300 -3.172413 9.712492 1.609810 -21.856486 -2.468439 -0.568322 -1.534731 -0.238283 -10.527096 -9.593779 -12.588532 1.529712 9.198451 -5.705305 -2.570454 7.564736 -33.627639 -13.991174 16.717103 -57.273566 -0.541288 4.330206 -21.477406 14.289680 4.871878 -5.471246 
-0.143628 -0.020991 0.097439 166.920332 17.829244 -16.943165 11.587730 3.014959 -6.880665 -8.422527 -11.857235 21.541199 -2.686563 11.543535 -11.978866 2.836016 0.460380 -4.241890 -5.780973 -5.760839 -1.054326 6.694386 10.893934 12.935520 12.798471 -11.534366 -4.740892 -18.123004 6.814330 0.523093 -5.394097 6.558761 7.056641 -4.854165 -0.377597 3.996483 -1.633966 5.086647 -0.813343 -7.068038 -38.665600 5.515522 22.854247 -18.479187 -12.900940 -17.514015 -0.312340 -4.581792 -38.988073 -3.712261 10.093933 1.378480 -21.990690 -2.252977 -0.126874 -1.617921 -0.794766 -10.637174 -9.601694 -12.595685 1.518162 9.070261 -5.760780 -2.405918 7.636171 -33.542585 -14.262845 16.887102 -58.026622 -1.284489 4.240869 -22.346659 14.502701 4.969700 -5.527680 
-0.148315 -0.019729 0.093478 167.163906 18.178519 -16.571524 10.750823 2.698506 -7.039232 -8.257085 -12.063653 20.859090 -2.505072 11.728164 -12.099134 2.964650 0.395946 -3.980562 -6.268098 -5.866859 -1.438775 6.395169 10.786449 12.784560 13.118042 -11.772760 -4.510924 -18.477546 6.939480 0.206047 -5.264008 6.526642 7.270690 -4.873495 -0.518440 3.743775 -1.612025 5.024635 -0.841436 -7.154752 -38.745004 5.238462 22.952024 -18.207985 -12.736080 -17.556831 -0.804772 -4.659989 -38.540562 -4.425862 10.213358 1.413248 -21.909858 -2.194375 -0.392895 -1.662975 -0.284745 -10.697883 -9.789147 -12.617785 1.568663 9.119851 -5.839880 -2.157203 7.241014 -33.000351 -14.488013 17.522347 -57.834144 -0.392474 4.418481 -22.336137 14.505024 5.273580 -5.774403 
-0.153405 -0.019100 0.090329 167.800626 18.585501 -16.720029 9.435987 2.407174 -6.177320 -8.158042 -12.747923 19.871231 -2.261079 12.208441 -12.294892 3.368336 0.319413 -3.864312 -6.691934 -6.096801 -2.570794 5.902808 9.977594 15.297208 13.055630 -12.856824 -4.770571 -18.727351 7.130017 -0.148224 -4.874709 6.241930 8.055137 -4.912091 -0.514311 3.391154 -1.600681 5.008725 -0.504187 -7.421854 -38.911807 4.926136 22.474200 -17.604508 -12.770329 -17.672420 -1.224177 -4.778235 -38.548649 -4.891482 10.551821 1.711553 -22.739341 -2.559932 0.186202 -1.013995 -0.140226 -11.480475 -10.433389 -12.876019 1.588755 9.318486 -6.066941 -2.031376 6.811757 -32.054650 -14.769654 18.262205 -57.928143 -0.428685 3.951789 -22.675599 15.127876 5.829829 -6.303897 
-0.156290 -0.020340 0.086912 168.242496 20.157258 -17.572152 8.344027 2.579620 -4.292790 -8.352449 -14.283478 17.872528 -2.153316 12.449950 -11.880117 4.250218 0.507195 -4.156670 -6.176896 -6.716255 -6.138101 5.290488 7.306462 23.347764 12.607087 -15.698944 -5.567191 -20.046494 7.053756 -0.563139 -4.646139 5.211955 10.250983 -4.862778 -0.773041 2.111062 -1.260457 4.604552 0.463915 -7.125729 -39.478525 4.497900 22.422011 -16.598250 -13.050927 -17.583102 -1.974444 -4.820203 -39.367607 -5.019039 11.169301 2.238111 -23.977006 -2.915504 -0.416689 0.344448 0.132981 -13.058389 -11.421673 -13.097850 1.048454 9.533641 -7.007478 -1.138389 6.197473 -30.308893 -15.724462 18.897002 -58.262195 0.620366 3.206886 -23.510269 16.258595 6.372522 -6.739100 
-0.157960 -0.020346 0.087413 168.350297 21.913969 -18.778707 7.476559 2.524988 -3.046151 -8.574310 -15.758928 17.811620 -2.372853 12.748081 -11.941936 5.362646 0.627028 -4.576951 -5.396956 -7.235716 -9.000375 4.918082 5.128073 29.914413 11.532981 -17.811206 -6.936125 -20.492724 6.904382 -0.655884 -4.070153 4.182783 12.328564 -4.758849 -1.204413 1.686150 -1.000327 4.149353 1.037643 -7.029815 -39.896104 4.417595 22.394581 -15.404643 -13.544232 -17.969764 -3.089997 -4.407412 -39.545461 -5.384148 11.571192 2.566239 -25.390342 -3.156132 0.074680 1.071691 0.286737 -14.519431 -12.246202 -13.127233 0.487323 9.834546 -7.593779 -1.050485 4.928966 -29.149383 -16.353537 19.888544 -58.517471 0.844486 3.033249 -24.400240 17.363488 6.813653 -6.793327 
-0.158295 -0.020901 0.091342 168.767367 21.511439 -18.881177 7.489411 2.949372 -2.449062 -8.564535 -14.621534 17.855899 -2.477984 12.192188 -11.711331 5.414218 1.100992 -4.787080 -4.703124 -6.342950 -10.957983 6.447726 5.809629 29.780084 11.072856 -15.218676 -7.966967 -19.368073 6.372480 -0.125666 -3.342877 3.673708 12.732624 -4.545824 -1.100003 2.109659 -1.041329 4.065285 0.571783 -6.993135 -38.292940 4.562094 21.405048 -14.794538 -13.602014 -18.282281 -3.261465 -4.551888 -40.066104 -5.302401 12.218127 2.814707 -26.475001 -2.417232 -0.263981 0.270801 0.634746 -14.174479 -12.099367 -13.497683 0.843358 9.617337 -7.468796 -1.044981 5.013330 -28.528778 -17.479044 22.205097 -58.695608 0.796234 4.005564 -24.827777 17.283679 6.438178 -6.911807 
